P2
5 2
255
255 0 0 0 0 
0 0 0 0 255 
