P2
5 2
255
182 91 91 255 0 
0 255 91 91 182 
