P2
5 2
255
0 255 182 0 182 
182 0 182 255 0 
