P2
5 2
255
182 0 255 182 0 
0 182 255 0 182 
