P2
5 2
255
0 182 91 255 91 
91 255 91 182 0 
