P2
5 2
255
182 255 0 91 91 
91 91 0 255 182 
