P2
5 2
255
255 91 0 0 91 
91 0 0 91 255 
