P2
5 2
255
255 182 0 0 182 
182 0 0 182 255 
