P2
5 2
255
91 91 91 182 182 
182 182 91 91 91 
